<?xml version="1.0" standalone="no"?>
<!DOCTYPE svg PUBLIC "-//W3C//DTD SVG 20010904//EN"
 "http://www.w3.org/TR/2001/REC-SVG-20010904/DTD/svg10.dtd">
<svg version="1.0" xmlns="http://www.w3.org/2000/svg"
 width="25.000000pt" height="25.000000pt" viewBox="0 0 25.000000 25.000000"
 preserveAspectRatio="xMidYMid meet">

<g transform="translate(0.000000,25.000000) scale(0.100000,-0.100000)"
fill="#000000" stroke="none">
<path d="M11 243 c9 -2 25 -21 37 -41 30 -53 53 -71 103 -81 l44 -9 -47 -1
c-27 -1 -48 -6 -48 -11 0 -6 -19 -31 -41 -55 -23 -25 -38 -45 -33 -45 5 0 47
22 94 49 69 39 86 53 88 75 3 24 0 26 -32 26 -50 0 -63 8 -97 56 -24 35 -36
44 -57 43 -15 -1 -20 -3 -11 -6z"/>
<path d="M137 206 c-10 -26 4 -47 27 -44 30 4 30 52 0 56 -12 2 -24 -4 -27
-12z"/>
<path d="M210 191 c0 -11 31 -24 39 -16 3 3 -1 10 -9 15 -19 12 -30 12 -30 1z"/>
<path d="M175 19 c-26 -12 -33 -18 -20 -19 11 0 31 9 45 20 31 24 26 24 -25
-1z"/>
</g>
</svg>
