<?xml version="1.0" standalone="no"?>
<!DOCTYPE svg PUBLIC "-//W3C//DTD SVG 20010904//EN"
 "http://www.w3.org/TR/2001/REC-SVG-20010904/DTD/svg10.dtd">
<svg version="1.0" xmlns="http://www.w3.org/2000/svg"
 width="358.000000pt" height="352.000000pt" viewBox="0 0 358.000000 352.000000"
 preserveAspectRatio="xMidYMid meet">

<g transform="translate(0.000000,352.000000) scale(0.100000,-0.100000)"
fill="#000000" stroke="none">
<path d="M303 3508 c-17 -22 -32 -72 -34 -108 -3 -87 1 -131 13 -124 7 4 8 3
4 -5 -4 -6 -2 -19 5 -27 7 -9 14 -22 15 -30 1 -8 18 -31 38 -52 153 -161 437
-101 505 107 21 63 27 131 14 144 -3 4 -8 19 -9 34 -2 15 -8 38 -15 50 -12 22
-14 22 -269 23 -197 0 -260 -3 -267 -12z m328 -59 c11 -5 24 -21 29 -35 5 -13
21 -29 35 -34 29 -11 47 -50 42 -89 -3 -14 1 -32 7 -40 8 -12 8 -13 -2 -7 -7
4 -83 7 -168 7 -161 -2 -171 0 -187 43 -14 36 39 95 86 96 15 0 27 4 27 9 0 4
12 20 26 35 28 28 70 34 105 15z"/>
<path d="M2060 3465 c-8 -2 -55 -8 -105 -14 -72 -9 -198 -37 -213 -47 -1 -1 3
-14 10 -28 9 -21 17 -27 35 -23 20 4 24 -1 33 -37 29 -119 38 -134 57 -103 4
6 31 30 58 52 206 165 242 223 125 200z"/>
<path d="M3348 3341 c4 -68 -8 -98 -46 -113 -25 -10 -26 -11 -7 -18 15 -7 9
-9 -23 -9 -27 -1 -41 3 -37 9 4 6 12 7 18 4 7 -4 7 -1 -1 7 -11 12 -15 12 -26
-3 -7 -9 -17 -14 -23 -10 -13 9 -28 52 -24 71 1 8 -3 18 -11 23 -10 8 -10 11
0 15 19 7 14 19 -8 20 -14 1 -20 -5 -21 -20 l0 -22 -11 23 c-19 38 -38 27 -38
-23 0 -25 5 -45 10 -45 6 0 10 -7 10 -15 0 -9 6 -12 15 -9 8 4 15 1 15 -4 0
-18 61 -42 107 -42 50 0 75 11 116 48 24 23 27 33 27 93 0 52 -4 68 -16 73
-27 11 -29 7 -26 -53z m-183 -71 c-4 -6 -1 -17 5 -25 10 -12 9 -15 -3 -15 -8
0 -21 8 -28 17 -8 9 -9 14 -3 10 7 -4 14 0 18 8 3 8 8 15 11 15 4 0 3 -5 0
-10z"/>
<path d="M3209 3310 c7 -35 24 -41 29 -10 3 20 4 20 21 -1 l18 -22 22 24 c19
21 21 21 15 4 -4 -11 -4 -17 0 -14 4 4 8 15 10 25 3 14 -2 19 -20 20 -13 1
-24 -3 -24 -9 0 -7 -4 -7 -12 1 -7 7 -24 12 -39 12 -24 0 -26 -3 -20 -30z"/>
<path d="M2666 2859 c-51 -40 -24 -139 41 -152 47 -10 67 -30 59 -60 -13 -54
-90 -24 -111 44 -4 10 -13 19 -21 19 -10 0 -14 -13 -14 -49 0 -46 1 -48 28
-49 15 0 43 -4 62 -7 26 -4 44 0 68 14 29 19 32 25 32 69 0 58 -16 76 -81 95
-36 11 -45 17 -47 40 -3 21 2 28 20 32 32 8 75 -10 83 -34 10 -32 25 -25 25
13 0 31 -3 34 -37 40 -61 10 -79 7 -107 -15z"/>
<path d="M3090 2869 c0 -4 9 -9 20 -12 18 -5 20 -14 20 -114 0 -71 -4 -113
-12 -121 -9 -9 1 -12 48 -12 45 1 55 3 42 11 -16 9 -18 26 -18 124 0 110 1
114 23 117 12 3 -11 6 -51 9 -39 2 -72 1 -72 -2z"/>
<path d="M2943 2845 c-9 -19 -8 -35 3 -72 19 -64 19 -66 -20 -61 -33 4 -36 1
-52 -39 -10 -24 -22 -43 -26 -43 -4 0 -8 -4 -8 -10 0 -5 14 -10 31 -10 25 0
29 3 20 14 -8 9 -8 21 0 45 9 26 16 31 43 31 27 0 35 -6 49 -35 21 -44 21 -43
0 -48 -10 -3 10 -5 45 -6 56 -1 62 1 48 14 -14 15 -56 115 -56 136 0 22 -43
109 -54 109 -6 0 -16 -11 -23 -25z"/>
<path d="M3294 2855 c13 -13 15 -34 9 -123 -3 -60 -11 -110 -17 -114 -6 -4 9
-7 34 -7 40 0 42 2 23 11 -21 10 -23 18 -23 102 0 55 4 86 9 81 9 -9 36 -80
64 -162 6 -18 13 -33 16 -33 8 0 27 45 42 100 6 25 19 61 28 80 l16 35 3 -99
c2 -73 -1 -102 -10 -108 -8 -4 9 -8 42 -8 42 0 51 3 42 12 -16 16 -15 75 1 81
10 4 10 6 0 6 -16 1 -18 141 -3 141 6 0 10 5 10 10 0 6 -20 10 -43 10 -48 0
-46 3 -90 -115 l-16 -40 -7 33 c-3 18 -10 35 -15 38 -5 2 -13 23 -19 44 -11
40 -11 40 -61 40 -46 0 -49 -2 -35 -15z"/>
<path d="M133 2853 c15 -4 17 -18 17 -118 0 -100 -2 -114 -17 -118 -10 -3 6
-5 35 -6 l52 -1 0 56 0 56 25 -23 c13 -13 25 -29 25 -35 0 -24 42 -54 75 -54
19 0 35 4 35 8 0 9 -68 92 -84 104 -6 4 -8 8 -6 10 3 2 14 8 25 14 15 8 20 22
20 50 0 52 -25 64 -135 63 -47 -1 -77 -3 -67 -6z m118 -13 c26 -15 26 -75 0
-90 -30 -15 -31 -14 -31 45 0 59 1 60 31 45z"/>
<path d="M1373 2853 c15 -4 17 -18 17 -118 0 -100 -2 -114 -17 -118 -10 -3 7
-5 37 -6 l55 -1 -3 44 c-7 81 1 86 38 24 35 -58 69 -83 100 -73 16 5 17 9 4
33 -7 15 -27 41 -44 57 -35 34 -37 41 -10 48 11 3 25 17 31 31 18 39 -3 72
-50 80 -41 7 -185 6 -158 -1z m137 -39 c12 -32 -3 -64 -30 -64 -17 0 -20 7
-20 45 0 39 3 45 20 45 13 0 24 -10 30 -26z"/>
<path d="M643 2770 c-18 -7 -23 -17 -23 -47 1 -32 6 -41 33 -58 37 -23 38 -39
4 -43 -16 -2 -27 4 -35 20 l-11 23 0 -22 c-1 -28 37 -40 88 -27 53 13 54 45 2
92 -23 21 -41 41 -41 45 0 12 58 8 63 -5 3 -8 6 -6 6 5 1 9 -5 17 -11 17 -7 0
-22 2 -33 5 -11 2 -30 0 -42 -5z"/>
<path d="M1676 2759 l-29 -23 23 -8 c22 -8 33 -2 43 26 5 15 27 -3 27 -23 0
-12 -14 -22 -47 -32 -40 -12 -49 -19 -51 -40 -4 -36 42 -68 71 -49 13 8 22 8
26 2 4 -7 18 -5 40 4 33 14 33 14 29 70 -5 63 -20 82 -69 90 -26 4 -41 0 -63
-17z m64 -95 c0 -28 -3 -35 -17 -32 -25 5 -29 39 -7 55 24 18 24 18 24 -23z"/>
<path d="M1878 2767 c-22 -9 -28 -17 -28 -42 0 -25 7 -36 38 -56 23 -15 36
-31 34 -42 -3 -19 10 -22 39 -7 28 16 23 44 -16 84 -41 42 -44 56 -12 56 18 0
19 2 7 10 -18 12 -27 11 -62 -3z"/>
<path d="M2118 2768 c-16 -5 -28 -14 -28 -19 0 -4 7 -6 16 -2 14 5 15 -4 12
-66 l-3 -71 40 0 40 0 -3 67 c-3 44 -9 74 -19 86 -18 19 -18 19 -55 5z"/>
<path d="M2222 2766 c-21 -11 -22 -14 -7 -26 13 -11 16 -27 13 -72 l-3 -58 38
0 37 0 0 63 c0 67 -4 78 -35 95 -15 7 -27 7 -43 -2z"/>
<path d="M453 2755 c-12 -9 -25 -30 -28 -48 -15 -77 40 -120 117 -95 33 11 44
20 45 39 l3 24 -12 -23 c-12 -24 -54 -40 -67 -26 -13 15 -31 101 -25 118 12
32 34 9 34 -35 0 -14 7 -19 25 -19 21 0 25 5 25 28 0 47 -72 69 -117 37z"/>
<path d="M778 2763 c-10 -2 -18 -9 -18 -14 0 -6 5 -7 11 -3 7 4 10 -16 7 -65
l-3 -71 50 1 c28 0 44 3 38 6 -20 7 -17 119 2 127 21 8 28 -13 23 -79 l-3 -55
40 0 40 0 0 65 c0 87 19 89 23 3 l3 -68 37 0 37 0 -3 67 c-5 83 -14 97 -61 89
-46 -8 -50 -8 -89 0 -20 4 -38 2 -47 -6 -10 -9 -15 -9 -15 -1 0 11 -38 13 -72
4z"/>
<path d="M1134 2761 c-11 -5 -26 -23 -33 -40 -25 -58 40 -138 94 -117 16 6 16
8 3 19 -9 6 -18 24 -22 40 -6 26 -5 27 34 27 35 0 40 3 40 24 0 13 -6 29 -14
35 -19 16 -76 23 -102 12z m63 -27 c3 -9 0 -20 -8 -25 -21 -13 -29 -11 -29 9
0 33 26 44 37 16z"/>
<path d="M1970 2755 c0 -8 2 -15 4 -15 2 0 6 7 10 15 3 8 1 15 -4 15 -6 0 -10
-7 -10 -15z"/>
<path d="M2018 2690 l4 -80 31 0 32 0 -2 63 c-1 34 -2 70 -2 80 -1 12 -10 17
-33 17 l-33 0 3 -80z"/>
<path d="M2356 2749 c-26 -21 -33 -56 -20 -105 7 -25 73 -51 101 -39 16 8 16
9 -4 12 -17 3 -23 11 -23 29 0 13 -4 24 -10 24 -5 0 -10 5 -10 10 0 6 20 10
45 10 41 0 45 2 45 24 0 52 -76 73 -124 35z m77 -15 c3 -16 0 -28 -10 -31 -20
-8 -26 2 -19 32 8 32 22 32 29 -1z"/>
<path d="M2907 2763 c-4 -3 -7 -13 -7 -22 1 -13 3 -13 11 2 11 19 8 33 -4 20z"/>
<path d="M1832 2638 c2 -18 11 -24 37 -26 l34 -4 -30 26 c-38 32 -45 32 -41 4z"/>
<path d="M2465 2639 c-4 -6 -5 -12 -2 -15 2 -3 7 2 10 11 7 17 1 20 -8 4z"/>
<path d="M1225 2630 c-3 -5 -1 -10 4 -10 6 0 11 5 11 10 0 6 -2 10 -4 10 -3 0
-8 -4 -11 -10z"/>
<path d="M0 2490 l0 -97 47 -6 c26 -3 49 -10 51 -16 2 -6 10 -11 17 -11 26 0
55 -56 55 -107 0 -84 -58 -143 -141 -143 l-29 0 0 -90 0 -90 43 6 c98 15 205
98 250 193 29 62 29 198 -1 261 -46 95 -129 160 -238 186 l-54 12 0 -98z"/>
<path d="M0 2250 c0 -89 3 -112 15 -116 27 -11 68 7 102 42 47 50 46 100 -2
149 -29 28 -43 35 -75 35 l-40 0 0 -110z"/>
<path d="M3515 2210 c-23 -6 -25 -8 -8 -9 12 0 25 -5 28 -11 12 -19 45 -11 45
10 0 21 -13 23 -65 10z"/>
<path d="M495 2060 c-22 -11 -46 -32 -52 -47 -10 -21 -13 -211 -13 -840 l0
-814 515 1 c441 1 515 3 515 16 0 12 117 14 850 14 l850 0 0 798 c0 773 -1
798 -20 829 -41 67 53 63 -1342 63 -1241 0 -1264 0 -1303 -20z m1858 -127
l667 -6 0 -722 0 -722 -67 -6 c-38 -4 -591 -7 -1230 -7 l-1163 0 0 735 0 735
563 0 c309 0 862 -3 1230 -7z"/>
<path d="M2098 1823 c139 -2 364 -2 500 0 136 1 22 2 -253 2 -275 0 -386 -1
-247 -2z"/>
<path d="M677 1762 c-22 -25 -21 -74 2 -100 26 -31 87 -30 113 1 22 25 19 77
-6 102 -21 21 -89 19 -109 -3z m90 -47 c21 -22 10 -45 -19 -37 -18 5 -20 7 -5
10 24 5 22 22 -3 22 -12 0 -24 -10 -30 -22 -10 -26 -13 -14 -4 20 7 26 38 29
61 7z"/>
<path d="M929 1743 c0 -27 -1 -27 -9 -5 -7 16 -18 22 -38 22 -27 0 -29 -3 -27
-35 2 -36 15 -63 15 -32 0 10 5 17 10 17 6 0 10 -7 10 -15 0 -8 5 -15 10 -15
6 0 10 7 10 15 0 8 5 15 10 15 6 0 10 -7 10 -15 0 -8 7 -15 16 -15 14 0 14 3
4 15 -7 8 -8 15 -2 15 5 0 15 -7 22 -15 7 -8 22 -15 34 -14 20 0 21 1 1 9 -16
7 -11 9 20 9 31 0 36 -2 20 -9 -13 -6 14 -9 78 -8 94 1 97 2 97 23 0 13 -7 25
-14 28 -10 4 -13 1 -9 -9 3 -7 0 -14 -6 -14 -6 0 -11 6 -11 13 -1 6 -7 1 -15
-13 l-14 -25 -1 33 c0 17 -4 32 -9 32 -13 0 -21 -27 -15 -45 4 -8 1 -15 -5
-15 -6 0 -11 9 -11 19 0 11 -4 23 -10 26 -6 4 -10 -6 -10 -22 0 -15 -4 -23 -8
-17 -4 6 -14 14 -22 17 -12 4 -11 6 3 6 9 1 17 6 17 11 0 15 -26 12 -40 -5
-11 -13 -14 -13 -26 2 -10 15 -16 16 -32 6 -23 -13 -32 -8 -32 19 0 29 -20 21
-21 -9z m-39 -13 c0 -5 -4 -10 -10 -10 -5 0 -10 5 -10 10 0 6 5 10 10 10 6 0
10 -4 10 -10z"/>
<path d="M1236 1711 c9 -34 14 -39 14 -13 0 12 5 22 10 22 6 0 10 -8 8 -17 -2
-14 6 -18 42 -19 35 -2 40 -1 20 6 l-25 8 28 1 c23 1 26 4 18 18 -7 13 -24 18
-65 19 -56 2 -56 2 -50 -25z m99 9 c3 -5 -1 -10 -10 -10 -9 0 -13 5 -10 10 3
6 8 10 10 10 2 0 7 -4 10 -10z"/>
<path d="M2150 1710 c-287 -5 -275 -6 193 -8 330 -1 496 1 492 8 -6 10 -108
10 -685 0z"/>
<path d="M1850 1600 c0 -7 172 -10 495 -10 323 0 495 3 495 10 0 7 -172 10
-495 10 -323 0 -495 -3 -495 -10z"/>
<path d="M1491 1353 c0 -35 2 -63 7 -63 4 0 6 21 4 48 -5 75 -10 82 -11 15z"/>
<path d="M866 1384 c-3 -9 -3 -20 0 -26 4 -6 0 -14 -7 -19 -21 -13 2 -43 35
-47 18 -2 26 1 26 12 0 19 -16 21 -23 4 -4 -10 -8 -9 -16 2 -16 23 -13 33 9
27 23 -6 43 22 34 47 -8 21 -50 21 -58 0z m44 -20 c0 -9 -7 -14 -17 -12 -25 5
-28 28 -4 28 12 0 21 -6 21 -16z"/>
<path d="M1730 1390 c-10 -6 -11 -10 -2 -10 8 0 12 -16 12 -45 0 -25 5 -45 10
-45 6 0 10 7 10 15 0 8 9 20 20 27 11 7 20 16 20 20 0 4 -9 10 -20 13 -11 3
-20 13 -20 21 0 16 -9 18 -30 4z"/>
<path d="M1808 1345 c-1 -30 0 -55 5 -55 4 0 7 25 7 55 0 71 -7 71 -12 0z"/>
<path d="M940 1341 c0 -28 5 -51 10 -51 6 0 10 20 10 44 0 25 -4 48 -10 51 -6
4 -10 -13 -10 -44z"/>
<path d="M1530 1380 c-1 -8 -2 -32 -3 -52 l-2 -36 58 -1 57 0 0 35 c0 29 -3
34 -22 33 -13 0 -17 -3 -10 -6 17 -7 15 -50 -3 -50 -10 0 -15 10 -15 29 0 15
-4 28 -10 28 -5 0 -10 -13 -10 -30 0 -46 -17 -36 -28 18 -5 26 -10 40 -12 32z"/>
<path d="M702 1368 c-15 -15 -16 -54 -2 -63 6 -4 8 -10 5 -15 -3 -5 0 -12 6
-16 8 -4 9 -3 5 5 -6 8 -1 10 17 6 18 -5 30 -1 46 16 26 28 26 41 3 62 -22 20
-63 22 -80 5z"/>
<path d="M1107 1358 c-22 -12 -22 -34 -1 -42 22 -8 33 3 14 14 -8 5 -11 12 -7
16 12 12 30 -13 23 -31 -4 -11 -12 -14 -27 -10 -15 5 -19 4 -15 -4 4 -6 18
-11 32 -11 21 0 24 5 24 34 0 37 -16 50 -43 34z"/>
<path d="M1387 1363 c-11 -10 -8 -73 3 -73 6 0 10 18 10 40 0 41 -2 45 -13 33z"/>
<path d="M980 1325 c0 -30 3 -35 23 -34 12 0 16 3 10 6 -16 6 -17 35 -1 51 9
9 7 12 -10 12 -18 0 -22 -6 -22 -35z"/>
<path d="M1040 1325 c0 -27 4 -35 18 -35 12 0 18 8 20 25 1 14 -4 25 -11 25
-8 0 -7 4 3 10 12 8 11 10 -7 10 -20 0 -23 -5 -23 -35z"/>
<path d="M1175 1349 c-13 -19 4 -59 25 -59 25 0 26 17 3 23 -17 4 -17 5 0 6
25 2 23 41 -2 41 -11 0 -23 -5 -26 -11z"/>
<path d="M1240 1325 c0 -19 5 -35 10 -35 6 0 10 14 10 31 0 17 4 28 10 24 6
-3 10 -18 10 -32 0 -33 5 -27 13 15 6 30 5 32 -23 32 -28 0 -30 -3 -30 -35z"/>
<path d="M1320 1325 c0 -28 4 -35 20 -35 11 0 20 5 20 10 0 6 -5 9 -11 8 -6
-2 -14 3 -16 10 -3 6 2 12 11 12 9 0 16 7 16 15 0 8 -9 15 -20 15 -16 0 -20
-7 -20 -35z"/>
<path d="M1419 1328 c5 -26 12 -34 34 -36 25 -3 27 -1 27 32 0 34 -2 36 -34
36 -32 0 -33 -1 -27 -32z m44 -15 c-3 -7 -8 -13 -12 -13 -16 0 -20 14 -10 33
9 15 13 17 19 7 5 -7 6 -19 3 -27z"/>
<path d="M1661 1328 c-1 -34 2 -38 24 -38 22 0 25 4 24 38 -1 36 -2 36 -8 7
-3 -16 -11 -30 -16 -30 -5 0 -13 14 -16 30 -6 29 -7 29 -8 -7z"/>
<path d="M1844 1333 c-9 -34 19 -58 48 -42 41 22 29 69 -18 69 -17 0 -25 -7
-30 -27z m56 -7 c0 -16 -27 -29 -41 -20 -19 11 -9 34 16 34 15 0 25 -6 25 -14z"/>
<path d="M1930 1325 c0 -19 5 -35 10 -35 6 0 10 11 10 25 0 16 6 25 15 25 9 0
15 -9 15 -25 0 -14 5 -25 10 -25 6 0 10 9 10 19 0 37 -12 51 -41 51 -26 0 -29
-3 -29 -35z"/>
<path d="M2242 1303 c108 -2 288 -2 400 0 112 1 23 2 -197 2 -220 0 -311 -1
-203 -2z"/>
<path d="M2098 1193 c139 -2 364 -2 500 0 136 1 22 2 -253 2 -275 0 -386 -1
-247 -2z"/>
<path d="M1850 1070 c0 -7 172 -10 495 -10 323 0 495 3 495 10 0 7 -172 10
-495 10 -323 0 -495 -3 -495 -10z"/>
<path d="M870 986 c-5 -13 -6 -33 -3 -45 9 -33 73 -41 73 -9 0 6 -6 5 -16 -3
-13 -10 -17 -10 -25 2 -12 20 -11 56 2 65 6 3 15 0 20 -7 4 -7 11 -10 14 -7
12 12 -6 28 -31 28 -17 0 -27 -8 -34 -24z"/>
<path d="M967 983 c-14 -13 -6 -25 8 -13 12 10 15 10 15 0 0 -9 9 -11 30 -7
16 4 32 2 35 -3 4 -6 -14 -10 -44 -10 -82 0 -77 -32 6 -36 50 -2 57 5 48 46
-5 21 -13 30 -26 30 -10 0 -19 -5 -19 -12 0 -9 -3 -9 -12 0 -13 13 -31 16 -41
5z m28 -53 c-3 -5 -10 -10 -16 -10 -5 0 -9 5 -9 10 0 6 7 10 16 10 8 0 12 -4
9 -10z m65 0 c0 -5 -7 -10 -15 -10 -8 0 -15 5 -15 10 0 6 7 10 15 10 8 0 15
-4 15 -10z"/>
<path d="M1080 950 c0 -32 4 -40 18 -39 10 0 12 3 5 6 -7 2 -13 16 -13 30 0
20 4 24 20 20 13 -3 20 0 20 9 0 8 -10 14 -25 14 -22 0 -25 -4 -25 -40z"/>
<path d="M1150 951 c0 -33 3 -36 30 -38 34 -2 52 21 43 55 -4 17 -12 21 -39
20 -32 -1 -34 -3 -34 -37z m58 11 c15 -10 5 -42 -13 -42 -15 0 -28 27 -19 41
6 11 15 11 32 1z"/>
<path d="M1249 965 c-1 -14 -2 -31 -3 -37 -1 -8 11 -13 27 -14 24 -1 28 2 23
20 -3 12 -6 29 -6 39 0 29 -40 22 -41 -8z m31 -35 c0 -5 -7 -10 -15 -10 -8 0
-15 5 -15 10 0 6 7 10 15 10 8 0 15 -4 15 -10z"/>
<path d="M1314 965 c-6 -26 10 -56 30 -54 7 0 6 2 -1 6 -15 5 -18 53 -4 53 5
0 11 -13 15 -30 5 -28 26 -43 26 -19 0 5 5 7 10 4 6 -3 10 -1 10 4 0 6 7 11
15 11 18 0 20 16 3 23 -8 3 -5 6 5 6 10 1 15 5 12 11 -3 5 -16 9 -28 8 -17 -2
-22 -8 -22 -27 0 -13 -5 -26 -12 -28 -8 -3 -11 5 -8 26 3 27 1 31 -21 31 -17
0 -25 -7 -30 -25z"/>
<path d="M1444 958 c-9 -18 -22 -36 -28 -40 -8 -6 -8 -8 1 -8 6 0 15 4 18 10
4 6 13 5 25 -2 14 -9 24 -9 42 0 23 11 23 11 -3 6 -15 -3 -30 -1 -33 5 -5 7 4
11 23 11 34 0 36 2 21 31 -16 30 -47 23 -66 -13z m56 2 c0 -5 -9 -10 -21 -10
-11 0 -17 5 -14 10 3 6 13 10 21 10 8 0 14 -4 14 -10z"/>
<path d="M2023 923 c97 -2 257 -2 355 0 97 1 17 2 -178 2 -195 0 -275 -1 -177
-2z"/>
<path d="M2632 913 c37 -2 100 -2 140 0 40 1 10 3 -67 3 -77 0 -110 -1 -73 -3z"/>
<path d="M2098 813 c139 -2 364 -2 500 0 136 1 22 2 -253 2 -275 0 -386 -1
-247 -2z"/>
<path d="M2335 789 c291 -4 494 -3 500 2 5 5 -191 8 -490 7 l-500 -1 490 -8z"/>
<path d="M2098 673 c139 -2 364 -2 500 0 136 1 22 2 -253 2 -275 0 -386 -1
-247 -2z"/>
<path d="M868 610 c3 -35 8 -50 18 -50 17 0 18 26 3 69 -16 46 -24 38 -21 -19z"/>
<path d="M936 643 c-6 -15 -8 -15 -16 -3 -8 12 -10 9 -10 -10 0 -35 11 -70 21
-70 5 0 9 14 9 31 0 17 5 39 10 50 6 11 7 19 1 19 -5 0 -12 -8 -15 -17z"/>
<path d="M965 611 c-12 -39 23 -70 42 -37 7 12 12 11 32 -5 13 -11 21 -23 17
-26 -4 -4 -11 -1 -15 6 -5 8 -14 10 -21 6 -18 -11 15 -28 40 -20 20 6 28 35
10 35 -6 0 -6 9 0 26 6 14 10 27 10 30 0 11 -35 2 -52 -13 -17 -15 -18 -15
-18 0 0 23 -37 22 -45 -2z m35 -15 c0 -8 -4 -17 -9 -20 -10 -7 -23 19 -14 28
11 11 23 6 23 -8z m60 5 c0 -6 -4 -13 -10 -16 -5 -3 -10 1 -10 9 0 9 5 16 10
16 6 0 10 -4 10 -9z"/>
<path d="M2040 351 c0 -5 7 -12 16 -15 26 -10 874 -7 874 3 0 6 -157 9 -400 8
-220 -1 -400 1 -400 4 0 3 -20 7 -45 7 -25 1 -45 -2 -45 -7z"/>
<path d="M2940 340 c0 -6 7 -10 15 -10 8 0 15 2 15 4 0 2 -7 6 -15 10 -8 3
-15 1 -15 -4z"/>
<path d="M1648 333 c7 -3 16 -2 19 1 4 3 -2 6 -13 5 -11 0 -14 -3 -6 -6z"/>
</g>
</svg>
